<svg xmlns="http://www.w3.org/2000/svg" width="26.196" height="26.196" viewBox="0 0 26.196 26.196"><defs><style>.a{fill:none;}.b{fill:#031a2f;}</style></defs><path class="a" d="M0,0H26.2V26.2H0Z"/><path class="b" d="M12.463,7.8c-.956,0-2.436-1.087-3.995-1.048a5.9,5.9,0,0,0-5,3.039C1.33,13.5,2.915,18.977,5,21.99c1.022,1.467,2.227,3.117,3.825,3.065,1.532-.065,2.109-1,3.969-1s2.371,1,3.995.956c1.65-.026,2.7-1.493,3.707-2.973A13.164,13.164,0,0,0,22.169,18.6a5.343,5.343,0,0,1-3.248-4.9,5.434,5.434,0,0,1,2.62-4.6,5.67,5.67,0,0,0-4.427-2.4c-2.017-.157-3.707,1.1-4.65,1.1Zm3.405-3.091A5.3,5.3,0,0,0,17.126.85a5.446,5.446,0,0,0-3.563,1.834A5.065,5.065,0,0,0,12.28,6.43a4.516,4.516,0,0,0,3.589-1.716Z" transform="translate(0.224 0.078)"/></svg>