<svg xmlns="http://www.w3.org/2000/svg" width="26.121" height="28.145" viewBox="0 0 26.121 28.145"><defs><style>.a{fill:#2196f3;}.b{fill:#4caf50;}.c{fill:#ffc107;}.d{fill:#f44336;}</style></defs><path class="a" d="M32.077,21.375,17.943,34.985A2.4,2.4,0,0,1,16.9,32.979V9.771a2.4,2.4,0,0,1,1.048-2.006Z" transform="translate(-16.895 -7.3)"/><path class="b" d="M53.47,9.321l-4.946,4.754L34.39.465A1.884,1.884,0,0,1,34.556.35,2.418,2.418,0,0,1,37,.312Z" transform="translate(-33.342 0)"/><path class="c" d="M281.276,160.359A2.444,2.444,0,0,1,280,162.531l-4.716,2.581-4.946-4.754,4.946-4.754L280,158.186A2.444,2.444,0,0,1,281.276,160.359Z" transform="translate(-255.155 -146.284)"/><path class="d" d="M53.47,239.719,37,248.728a2.45,2.45,0,0,1-2.441-.038,1.884,1.884,0,0,1-.166-.115l14.134-13.61Z" transform="translate(-33.342 -220.89)"/></svg>